<mxfile host="app.diagrams.net" modified="2021-06-27T06:23:58.101Z" agent="5.0 (Macintosh; Intel Mac OS X 10_15_7) AppleWebKit/537.36 (KHTML, like Gecko) Chrome/91.0.4472.114 Safari/537.36" etag="h0JAYa2hpIB2nm8v_zBx" version="14.8.1" type="github">
  <diagram id="dZbaD18MQJhdawrXO8yU" name="Page-1">
    <mxGraphModel dx="1292" dy="738" grid="1" gridSize="10" guides="1" tooltips="1" connect="1" arrows="1" fold="1" page="1" pageScale="1" pageWidth="827" pageHeight="1169" math="0" shadow="0">
      <root>
        <mxCell id="0" />
        <mxCell id="1" parent="0" />
        <mxCell id="IeePr_OmWzwxLe6y6hML-26" value="变更容量防御" style="rounded=0;whiteSpace=wrap;html=1;" vertex="1" parent="1">
          <mxGeometry x="110" y="270" width="240" height="60" as="geometry" />
        </mxCell>
        <mxCell id="IeePr_OmWzwxLe6y6hML-27" value="容量风险识别" style="rounded=0;whiteSpace=wrap;html=1;" vertex="1" parent="1">
          <mxGeometry x="380" y="270" width="240" height="60" as="geometry" />
        </mxCell>
        <mxCell id="IeePr_OmWzwxLe6y6hML-28" value="元数据" style="rounded=0;whiteSpace=wrap;html=1;" vertex="1" parent="1">
          <mxGeometry x="380" y="510" width="240" height="60" as="geometry" />
        </mxCell>
        <mxCell id="IeePr_OmWzwxLe6y6hML-29" value="变更影响面分析" style="rounded=0;whiteSpace=wrap;html=1;" vertex="1" parent="1">
          <mxGeometry x="380" y="585" width="240" height="60" as="geometry" />
        </mxCell>
        <mxCell id="IeePr_OmWzwxLe6y6hML-30" value="链路聚合" style="rounded=0;whiteSpace=wrap;html=1;" vertex="1" parent="1">
          <mxGeometry x="380" y="660" width="240" height="60" as="geometry" />
        </mxCell>
        <mxCell id="IeePr_OmWzwxLe6y6hML-31" value="建设基于变更影响面和数据算法的通用变更防御能力，覆盖容量风险、性能恶化、业务异常等类型的变更防御能力" style="rounded=0;whiteSpace=wrap;html=1;" vertex="1" parent="1">
          <mxGeometry x="380" y="430" width="240" height="60" as="geometry" />
        </mxCell>
        <mxCell id="IeePr_OmWzwxLe6y6hML-32" value="建设全站容量风险识别&amp;amp;自愈决策能力，提升异常识别和自愈决策精度和业务效果，识别准确率达到75%" style="rounded=0;whiteSpace=wrap;html=1;" vertex="1" parent="1">
          <mxGeometry x="380" y="340" width="240" height="60" as="geometry" />
        </mxCell>
        <mxCell id="IeePr_OmWzwxLe6y6hML-35" value="单笔数据模型刻画，包括业务发生时间、业务标识、途径节点(含调用顺序/耗时/异常信息)、数据(DB/业务日志)、服务调用的参数/返回，数据模型自我度量" style="rounded=0;whiteSpace=wrap;html=1;" vertex="1" parent="1">
          <mxGeometry x="60" y="660" width="240" height="60" as="geometry" />
        </mxCell>
        <mxCell id="IeePr_OmWzwxLe6y6hML-37" value="变更影响面分析" style="rounded=0;whiteSpace=wrap;html=1;" vertex="1" parent="1">
          <mxGeometry x="60" y="585" width="240" height="60" as="geometry" />
        </mxCell>
        <mxCell id="IeePr_OmWzwxLe6y6hML-39" value="" style="rounded=0;whiteSpace=wrap;html=1;" vertex="1" parent="1">
          <mxGeometry x="60" y="510" width="240" height="60" as="geometry" />
        </mxCell>
      </root>
    </mxGraphModel>
  </diagram>
</mxfile>
